<?xml version="1.0" encoding="UTF-8" standalone="no"?>
<!-- Created with Inkscape (http://www.inkscape.org/) -->

<svg
   width="1920"
   height="1080"
   viewBox="0 0 1920 1080"
   version="1.1"
   id="svg5"
   inkscape:version="1.1.2 (b8e25be833, 2022-02-05)"
   sodipodi:docname="logo.svg"
   xmlns:inkscape="http://www.inkscape.org/namespaces/inkscape"
   xmlns:sodipodi="http://sodipodi.sourceforge.net/DTD/sodipodi-0.dtd"
   xmlns="http://www.w3.org/2000/svg"
   xmlns:svg="http://www.w3.org/2000/svg">
  <sodipodi:namedview
     id="namedview7"
     pagecolor="#ffffff"
     bordercolor="#666666"
     borderopacity="1.0"
     inkscape:pageshadow="2"
     inkscape:pageopacity="0.0"
     inkscape:pagecheckerboard="0"
     inkscape:document-units="px"
     showgrid="false"
     inkscape:zoom="1.3932622"
     inkscape:cx="1028.5214"
     inkscape:cy="484.83335"
     inkscape:window-width="1366"
     inkscape:window-height="704"
     inkscape:window-x="0"
     inkscape:window-y="27"
     inkscape:window-maximized="1"
     inkscape:current-layer="text1046" />
  <defs
     id="defs2">
    <inkscape:perspective
       sodipodi:type="inkscape:persp3d"
       inkscape:vp_x="0 : 540 : 1"
       inkscape:vp_y="0 : 1000 : 0"
       inkscape:vp_z="1920 : 540 : 1"
       inkscape:persp3d-origin="960 : 360 : 1"
       id="perspective4051" />
  </defs>
  <g
     inkscape:label="Layer 1"
     inkscape:groupmode="layer"
     id="layer1">
    <g
       aria-label="X"
       transform="matrix(1.2144813,0,0,0.82339678,114.57321,-4.755772)"
       id="text1046"
       style="font-size:261.686px;line-height:1.25;stroke-width:6.54214">
      <g
         aria-label="D"
         transform="scale(0.83579384,1.1964673)"
         id="text2060"
         style="font-size:255.699px;fill:#079869;stroke-width:41.8208;fill-opacity:1"
         inkscape:export-filename="/home/xanjit/Desktop/neog/xendesign/components/img/logo.png"
         inkscape:export-xdpi="96"
         inkscape:export-ydpi="96">
        <path
           style="fill:#079869;stroke:none;stroke-width:0;stroke-linecap:butt;stroke-linejoin:miter;stroke-opacity:1;fill-opacity:1"
           d="m 1025.032,401.53641 c -10.2149,-7.6024 116.461,81.33819 3.7038,185.49283 -2.4986,2.308 -24.8659,-25.79516 -27.1565,-25.13068 -18.40482,5.33896 -10.20146,-6.97113 -16.61423,-1.0476 -9.36935,8.65455 12.8644,12.93128 4.22156,11.07649 -16.45104,-3.53047 31.46347,10.09439 31.46347,10.09439 l -8.9391,-10.46247 c 0,0 92.3041,-70.9697 -0.3255,-155.27665 -23.27317,-27.55093 -22.50466,46.03281 -13.86616,-7.3597 1.42135,-8.78498 22.64406,-1.64087 27.51266,-7.38661 z"
           id="path9293"
           sodipodi:nodetypes="csssscccsc" />
      </g>
      <g
         aria-label="D"
         transform="matrix(-0.83579384,0,0,1.1964673,1561.8946,-6.5211189e-7)"
         id="text2060-6"
         style="font-size:255.699px;line-height:1.25;fill:#079869;stroke-width:41.8208;fill-opacity:1"
         inkscape:export-filename="/home/xanjit/Desktop/neog/xendesign/components/img/logo.png"
         inkscape:export-xdpi="96"
         inkscape:export-ydpi="96">
        <path
           style="fill:#079869;stroke:none;stroke-width:0;stroke-linecap:butt;stroke-linejoin:miter;stroke-opacity:1;fill-opacity:1"
           d="m 1025.032,401.53641 c -10.2149,-7.6024 116.461,81.33819 3.7038,185.49283 -2.4986,2.308 -24.8659,-25.79516 -27.1565,-25.13068 -18.40482,5.33896 -10.20146,-6.97113 -16.61423,-1.0476 -9.36935,8.65455 12.8644,12.93128 4.22156,11.07649 -16.45104,-3.53047 31.46347,10.09439 31.46347,10.09439 l -8.9391,-10.46247 c 0,0 92.3041,-70.9697 -0.3255,-155.27665 -23.27317,-27.55093 -22.50466,46.03281 -13.86616,-7.3597 1.42135,-8.78498 22.64406,-1.64087 27.51266,-7.38661 z"
           id="path9293-7"
           sodipodi:nodetypes="csssscccsc" />
      </g>
      <g
         aria-label="x"
         transform="scale(0.86249526,1.1594267)"
         id="text4237"
         style="font-size:350.023px;stroke-width:57.2475;fill:#07c56c;fill-opacity:1"
         inkscape:export-filename="/home/xanjit/Desktop/neog/xendesign/components/img/logo.png"
         inkscape:export-xdpi="96"
         inkscape:export-ydpi="96">
        <path
           d="m 993.2987,414.36443 -69.21842,93.14577 72.80752,98.27306 H 959.8004 L 904.08385,530.58301 848.3673,605.78326 H 811.2799 L 885.62561,505.6302 817.60356,414.36443 h 37.0874 l 50.76017,68.19296 50.76017,-68.19296 z"
           id="path8370"
           style="fill:#07c56c;fill-opacity:1" />
      </g>
    </g>
  </g>
</svg>
